<?xml version="1.0" encoding="UTF-8" standalone="no"?>
<!DOCTYPE svg PUBLIC "-//W3C//DTD SVG 1.1//EN"
 "http://www.w3.org/Graphics/SVG/1.1/DTD/svg11.dtd">
<!-- Generated by graphviz version 2.44.1 (20200629.0846)
 -->
<!-- Title: Mull Pages: 1 -->
<svg width="420pt" height="240pt"
 viewBox="0.00 0.00 420.00 240.00" xmlns="http://www.w3.org/2000/svg" xmlns:xlink="http://www.w3.org/1999/xlink">
<g id="graph0" class="graph" transform="scale(1 1) rotate(0) translate(36 204)">
<title>Mull</title>
<polygon fill="white" stroke="transparent" points="-36,36 -36,-204 384,-204 384,36 -36,36"/>
<!-- ExecutionResult -->
<g id="node1" class="node">
<title>ExecutionResult</title>
<polygon fill="none" stroke="black" points="0.5,-147 0.5,-168 107.5,-168 107.5,-147 0.5,-147"/>
<text text-anchor="start" x="9" y="-154.8" font-family="Times,serif" font-style="italic" font-size="14.00">execution_result</text>
<polygon fill="none" stroke="black" points="0.5,-126 0.5,-147 107.5,-147 107.5,-126 0.5,-126"/>
<text text-anchor="start" x="3.5" y="-132.8" font-family="Times,serif" font-size="14.00">mutation_point_id</text>
<polygon fill="none" stroke="black" points="0.5,-105 0.5,-126 107.5,-126 107.5,-105 0.5,-105"/>
<text text-anchor="start" x="38.5" y="-111.8" font-family="Times,serif" font-size="14.00">status</text>
<polygon fill="none" stroke="black" points="0.5,-84 0.5,-105 107.5,-105 107.5,-84 0.5,-84"/>
<text text-anchor="start" x="31" y="-90.8" font-family="Times,serif" font-size="14.00">duration</text>
<polygon fill="none" stroke="black" points="0.5,-63 0.5,-84 107.5,-84 107.5,-63 0.5,-63"/>
<text text-anchor="start" x="37" y="-69.8" font-family="Times,serif" font-size="14.00">stdout</text>
<polygon fill="none" stroke="black" points="0.5,-42 0.5,-63 107.5,-63 107.5,-42 0.5,-42"/>
<text text-anchor="start" x="38.5" y="-48.8" font-family="Times,serif" font-size="14.00">stderr</text>
</g>
<!-- MutationPoint -->
<g id="node2" class="node">
<title>MutationPoint</title>
<polygon fill="none" stroke="black" points="251.5,-147 251.5,-168 348.5,-168 348.5,-147 251.5,-147"/>
<text text-anchor="start" x="258.5" y="-154.8" font-family="Times,serif" font-style="italic" font-size="14.00">mutation_point</text>
<polygon fill="none" stroke="black" points="251.5,-126 251.5,-147 348.5,-147 348.5,-126 251.5,-126"/>
<text text-anchor="start" x="272.5" y="-132.8" font-family="Times,serif" font-size="14.00">unique_id</text>
<polygon fill="none" stroke="black" points="251.5,-105 251.5,-126 348.5,-126 348.5,-105 251.5,-105"/>
<text text-anchor="start" x="278.5" y="-111.8" font-family="Times,serif" font-size="14.00">mutator</text>
<polygon fill="none" stroke="black" points="251.5,-84 251.5,-105 348.5,-105 348.5,-84 251.5,-84"/>
<text text-anchor="start" x="259" y="-90.8" font-family="Times,serif" font-size="14.00">function_name</text>
<polygon fill="none" stroke="black" points="251.5,-63 251.5,-84 348.5,-84 348.5,-63 251.5,-63"/>
<text text-anchor="start" x="276" y="-69.8" font-family="Times,serif" font-size="14.00">filename</text>
<polygon fill="none" stroke="black" points="251.5,-42 251.5,-63 348.5,-63 348.5,-42 251.5,-42"/>
<text text-anchor="start" x="275.5" y="-48.8" font-family="Times,serif" font-size="14.00">directory</text>
<polygon fill="none" stroke="black" points="251.5,-21 251.5,-42 348.5,-42 348.5,-21 251.5,-21"/>
<text text-anchor="start" x="265" y="-27.8" font-family="Times,serif" font-size="14.00">line_number</text>
<polygon fill="none" stroke="black" points="251.5,0 251.5,-21 348.5,-21 348.5,0 251.5,0"/>
<text text-anchor="start" x="254.5" y="-6.8" font-family="Times,serif" font-size="14.00">column_number</text>
</g>
<!-- ExecutionResult&#45;&gt;MutationPoint -->
<g id="edge1" class="edge">
<title>ExecutionResult:mutation_point_id&#45;&gt;MutationPoint:unique_id</title>
<path fill="none" stroke="black" d="M107,-137C167.5,-137 185.11,-137 240.91,-137"/>
<polygon fill="black" stroke="black" points="241,-140.5 251,-137 241,-133.5 241,-140.5"/>
</g>
</g>
</svg>
