<?xml version="1.0" encoding="UTF-8" standalone="no"?>
<!DOCTYPE svg PUBLIC "-//W3C//DTD SVG 1.1//EN"
 "http://www.w3.org/Graphics/SVG/1.1/DTD/svg11.dtd">
<!-- Generated by graphviz version 2.42.3 (20191010.1750)
 -->
<!-- Title: Mull Pages: 1 -->
<svg width="422pt" height="368pt"
 viewBox="0.00 0.00 422.00 368.00" xmlns="http://www.w3.org/2000/svg" xmlns:xlink="http://www.w3.org/1999/xlink">
<g id="graph0" class="graph" transform="scale(1 1) rotate(0) translate(36 332)">
<title>Mull</title>
<polygon fill="white" stroke="transparent" points="-36,36 -36,-332 386,-332 386,36 -36,36"/>
<!-- ExecutionResult -->
<g id="node1" class="node">
<title>ExecutionResult</title>
<polygon fill="none" stroke="black" points="0.5,-218 0.5,-238 109.5,-238 109.5,-218 0.5,-218"/>
<text text-anchor="start" x="8.74" y="-224.8" font-family="Times,serif" font-style="italic" font-size="14.00">execution_result</text>
<polygon fill="none" stroke="black" points="0.5,-198 0.5,-218 109.5,-218 109.5,-198 0.5,-198"/>
<text text-anchor="start" x="36.33" y="-203.8" font-family="Times,serif" font-size="14.00">test_id</text>
<polygon fill="none" stroke="black" points="0.5,-178 0.5,-198 109.5,-198 109.5,-178 0.5,-178"/>
<text text-anchor="start" x="3.28" y="-183.8" font-family="Times,serif" font-size="14.00">mutation_point_id</text>
<polygon fill="none" stroke="black" points="0.5,-158 0.5,-178 109.5,-178 109.5,-158 0.5,-158"/>
<text text-anchor="start" x="39.06" y="-163.8" font-family="Times,serif" font-size="14.00">status</text>
<polygon fill="none" stroke="black" points="0.5,-138 0.5,-158 109.5,-158 109.5,-138 0.5,-138"/>
<text text-anchor="start" x="31.67" y="-143.8" font-family="Times,serif" font-size="14.00">duration</text>
<polygon fill="none" stroke="black" points="0.5,-118 0.5,-138 109.5,-138 109.5,-118 0.5,-118"/>
<text text-anchor="start" x="37.89" y="-123.8" font-family="Times,serif" font-size="14.00">stdout</text>
<polygon fill="none" stroke="black" points="0.5,-98 0.5,-118 109.5,-118 109.5,-98 0.5,-98"/>
<text text-anchor="start" x="39.06" y="-103.8" font-family="Times,serif" font-size="14.00">stderr</text>
</g>
<!-- Test -->
<g id="node2" class="node">
<title>Test</title>
<polygon fill="none" stroke="black" points="262.5,-276 262.5,-296 341.5,-296 341.5,-276 262.5,-276"/>
<text text-anchor="start" x="292.28" y="-282.8" font-family="Times,serif" font-style="italic" font-size="14.00">test</text>
<polygon fill="none" stroke="black" points="262.5,-256 262.5,-276 341.5,-276 341.5,-256 262.5,-256"/>
<text text-anchor="start" x="274" y="-261.8" font-family="Times,serif" font-size="14.00">unique_id</text>
<polygon fill="none" stroke="black" points="262.5,-236 262.5,-256 341.5,-256 341.5,-236 262.5,-236"/>
<text text-anchor="start" x="273.62" y="-241.8" font-family="Times,serif" font-size="14.00">test_name</text>
<polygon fill="none" stroke="black" points="262.5,-216 262.5,-236 341.5,-236 341.5,-216 262.5,-216"/>
<text text-anchor="start" x="267.01" y="-221.8" font-family="Times,serif" font-size="14.00">location_file</text>
<polygon fill="none" stroke="black" points="262.5,-196 262.5,-216 341.5,-216 341.5,-196 262.5,-196"/>
<text text-anchor="start" x="265.46" y="-201.8" font-family="Times,serif" font-size="14.00">location_line</text>
</g>
<!-- ExecutionResult&#45;&gt;Test -->
<g id="edge1" class="edge">
<title>ExecutionResult:test_id&#45;&gt;Test:unique_id</title>
<path fill="none" stroke="black" d="M109,-208C177.97,-208 188.1,-260.47 251.33,-265.6"/>
<polygon fill="black" stroke="black" points="251.37,-269.1 261.5,-266 251.65,-262.11 251.37,-269.1"/>
</g>
<!-- MutationPoint -->
<g id="node3" class="node">
<title>MutationPoint</title>
<polygon fill="none" stroke="black" points="253.5,-140 253.5,-160 350.5,-160 350.5,-140 253.5,-140"/>
<text text-anchor="start" x="259.22" y="-146.8" font-family="Times,serif" font-style="italic" font-size="14.00">mutation_point</text>
<polygon fill="none" stroke="black" points="253.5,-120 253.5,-140 350.5,-140 350.5,-120 253.5,-120"/>
<text text-anchor="start" x="274" y="-125.8" font-family="Times,serif" font-size="14.00">unique_id</text>
<polygon fill="none" stroke="black" points="253.5,-100 253.5,-120 350.5,-120 350.5,-100 253.5,-100"/>
<text text-anchor="start" x="280.23" y="-105.8" font-family="Times,serif" font-size="14.00">mutator</text>
<polygon fill="none" stroke="black" points="253.5,-80 253.5,-100 350.5,-100 350.5,-80 253.5,-80"/>
<text text-anchor="start" x="260.01" y="-85.8" font-family="Times,serif" font-size="14.00">function_name</text>
<polygon fill="none" stroke="black" points="253.5,-60 253.5,-80 350.5,-80 350.5,-60 253.5,-60"/>
<text text-anchor="start" x="277.9" y="-65.8" font-family="Times,serif" font-size="14.00">filename</text>
<polygon fill="none" stroke="black" points="253.5,-40 253.5,-60 350.5,-60 350.5,-40 253.5,-40"/>
<text text-anchor="start" x="276.73" y="-45.8" font-family="Times,serif" font-size="14.00">directory</text>
<polygon fill="none" stroke="black" points="253.5,-20 253.5,-40 350.5,-40 350.5,-20 253.5,-20"/>
<text text-anchor="start" x="266.62" y="-25.8" font-family="Times,serif" font-size="14.00">line_number</text>
<polygon fill="none" stroke="black" points="253.5,0 253.5,-20 350.5,-20 350.5,0 253.5,0"/>
<text text-anchor="start" x="256.12" y="-5.8" font-family="Times,serif" font-size="14.00">column_number</text>
</g>
<!-- ExecutionResult&#45;&gt;MutationPoint -->
<g id="edge2" class="edge">
<title>ExecutionResult:mutation_point_id&#45;&gt;MutationPoint:unique_id</title>
<path fill="none" stroke="black" d="M109,-188C174.49,-188 183.23,-135.74 242.96,-130.43"/>
<polygon fill="black" stroke="black" points="243.16,-133.93 253,-130 242.86,-126.93 243.16,-133.93"/>
</g>
</g>
</svg>
